<?xml version="1.0" encoding="utf-8" standalone="yes"?>
<!DOCTYPE svg PUBLIC "-//W3C//DTD SVG 1.1//EN" "http://www.w3.org/Graphics/SVG/1.1/DTD/svg11.dtd">
<svg capture-custom-pattern-version="1.0" fill="none" height="2000px" id="Contours" stroke="black" stroke-linecap="round" stroke-linejoin="round" version="1.1" viewBox="0 0 2000 2000" width="2000px" x="0px" xml:space="preserve" xmlns="http://www.w3.org/2000/svg" xmlns:xlink="http://www.w3.org/1999/xlink" y="0px">
	<defs>
		<clipPath id="boundary-clip">
			<rect fill="none" height="100%" stroke="none" width="100%" x="0" y="0" />
		</clipPath>
		<symbol id="1-400">
			<svg fill="#000000" height="100%" id="svg1-400" isColored="true" opacity="1.0" space="preserve" stroke="#000000" stroke-linecap="round" stroke-linejoin="round" version="1.1" viewBox="-1.8217517774405763e-07 0.0 2706.826881283247 1487.1775558214006" width="100%" x="0px" y="0px">
				<desc />
				<path d="M569.2091674804688 1483.953125 C565.4030151367188 1480.17431640625 565.0316772460938 1474.802001953125 564.6742553710938 1469.759765625 C560.6956176757812 1461.006103515625 556.7091674804688 1452.244873046875 552.9303588867188 1443.397216796875 C543.8554077148438 1419.291259765625 529.8447875976562 1397.498779296875 520.5883178710938 1373.5009765625 C510.35162353515625 1343.70556640625 509.93438720703125 1311.593017578125 506.91424560546875 1280.5009765625 C504.88385009765625 1257.3172607421875 505.80718994140625 1233.98681640625 508.17449951171875 1210.8648681640625 C514.7451782226562 1153.6712646484375 542.4214477539062 1100.2442626953125 577.6375122070312 1055.4263916015625 C635.9109497070312 990.907470703125 716.7539672851562 953.7322998046875 791.7625122070312 913.8531494140625 C843.9890747070312 885.7078857421875 895.4180297851562 856.1031494140625 947.8794555664062 828.38818359375 C959.9501342773438 823.24365234375 992.1387329101562 796.7088623046875 992.7157592773438 822.8487548828125 C990.3170776367188 830.376953125 982.6017456054688 834.94091796875 977.4613647460938 840.5787353515625 C959.6477661132812 856.6043701171875 939.6121215820312 870.0223388671875 919.9138793945312 883.5963134765625 C844.4202270507812 935.2010498046875 762.0709838867188 975.4935302734375 685.8699340820312 1025.8736572265625 C603.6398315429688 1077.4720458984375 551.9756469726562 1158.3658447265625 548.4141235351562 1256.3470458984375 C546.8716430664062 1290.469482421875 549.4916381835938 1324.559326171875 554.1810913085938 1358.344970703125 C555.3173217773438 1378.902099609375 559.3960571289062 1399.34375 567.6900024414062 1418.253173828125 C567.6544799804688 1418.453125 567.6190795898438 1418.653076171875 567.5830688476562 1418.85205078125 C577.5398559570312 1364.1103515625 607.7015991210938 1312.114990234375 650.1707153320312 1276.1900634765625 C684.0075073242188 1250.5902099609375 728.6932983398438 1247.6400146484375 769.2310180664062 1240.9110107421875 C801.4190063476562 1236.3585205078125 832.6083374023438 1226.64208984375 863.3327026367188 1216.267822265625 C895.7315063476562 1202.27783203125 928.6690063476562 1186.88671875 956.1373901367188 1164.4459228515625 C982.9602661132812 1138.40087890625 1008.5151977539062 1110.9642333984375 1032.4144287109375 1082.2161865234375 C1041.914306640625 1069.0257568359375 1062.943603515625 1084.4105224609375 1052.72021484375 1097.41748046875 C1023.6812744140625 1130.1693115234375 998.2671508789062 1165.4918212890625 967.7542114257812 1196.8143310546875 C922.7105102539062 1240.0386962890625 862.5656127929688 1262.8431396484375 802.5964965820312 1276.6240234375 C759.7648315429688 1287.974609375 712.2555541992188 1286.894775390625 673.9854125976562 1311.465087890625 C645.0820922851562 1331.789306640625 626.6635131835938 1363.52001953125 611.2219848632812 1394.591064453125 C597.4072875976562 1421.72216796875 592.1438598632812 1451.791015625 587.3973999023438 1481.326904296875 C587.3912963867188 1481.323974609375 587.3859252929688 1481.321044921875 587.3810424804688 1481.318359375 C583.9130249023438 1487.842041015625 574.4038696289062 1489.2041015625 569.2091674804688 1483.953125 z" fill="#FF8000" fill-opacity="1.0" stroke="none" />
				<path d="M1935.207763671875 1213.00244140625 C1920.580078125 1212.677978515625 1905.9921875 1211.1002197265625 1891.36474609375 1210.9024658203125 C1869.8017578125 1212.29052734375 1848.40869140625 1210.111328125 1827.0693359375 1207.1201171875 C1804.422607421875 1203.7943115234375 1781.77685546875 1199.7906494140625 1759.614501953125 1194.0694580078125 C1749.09228515625 1191.0440673828125 1738.708984375 1187.4749755859375 1728.31396484375 1184.050048828125 C1706.630615234375 1177.211181640625 1685.087646484375 1169.923583984375 1664.237548828125 1160.818603515625 C1532.49658203125 1106.9654541015625 1428.44580078125 997.590087890625 1290.03857421875 958.4534912109375 C1239.81591796875 945.2208251953125 1195.2261962890625 947.31005859375 1145.4190673828125 961.445068359375 C1101.063720703125 974.7432861328125 1057.8397216796875 994.052490234375 1022.2537231445312 1024.154296875 C1001.9992065429688 1040.1373291015625 983.3107299804688 1057.868408203125 965.4338989257812 1076.4327392578125 C961.0664672851562 1080.56298828125 956.4965209960938 1084.780029296875 950.2838745117188 1085.52099609375 C930.7979125976562 1084.953369140625 938.0110473632812 1058.3466796875 942.7293090820312 1046.763671875 C997.3098754882812 923.9505615234375 1143.017822265625 847.262939453125 1274.756103515625 879.4434814453125 C1341.674072265625 893.657958984375 1402.740234375 925.69921875 1459.2691650390625 963.37841796875 C1546.10302734375 1018.4656982421875 1634.1337890625 1071.9937744140625 1725.005126953125 1120.1644287109375 C1750.864501953125 1135.0191650390625 1778.890869140625 1145.3238525390625 1807.100830078125 1154.721923828125 C1825.883544921875 1161.1270751953125 1844.86669921875 1167.14697265625 1864.594482421875 1169.825927734375 C1876.3515625 1171.6934814453125 1887.920654296875 1175.0972900390625 1899.904052734375 1175.092041015625 C1915.367919921875 1174.6270751953125 1930.584716796875 1172.1121826171875 1945.938232421875 1170.398681640625 C1961.2578125 1168.685546875 1976.725341796875 1168.6395263671875 1991.99462890625 1166.456298828125 C2002.12841796875 1164.7291259765625 2012.1396484375 1162.32470703125 2022.289794921875 1160.6630859375 C2028.797607421875 1159.627685546875 2035.24755859375 1158.488037109375 2041.4765625 1161.6580810546875 C2052.83837890625 1167.1087646484375 2056.2919921875 1182.10986328125 2048.0546875 1191.9927978515625 C2043.959228515625 1197.459228515625 2037.2431640625 1199.235107421875 2031.018798828125 1200.92431640625 C2020.20263671875 1203.7576904296875 2009.135498046875 1205.2388916015625 1998.11572265625 1207.015380859375 C1977.33447265625 1210.5599365234375 1956.361328125 1213.9383544921875 1935.207763671875 1213.00244140625 z" fill="#FF8000" fill-opacity="1.0" stroke="none" />
				<path d="M815.7496948242188 912.4915771484375 C806.8306274414062 911.353271484375 799.7815551757812 905.134033203125 792.6286010742188 900.198974609375 C787.0582885742188 896.158447265625 781.5117797851562 892.1131591796875 775.7882690429688 888.29052734375 C741.6272583007812 867.3665771484375 708.2782592773438 844.8231201171875 672.1478881835938 827.3570556640625 C593.5586547851562 788.9500732421875 531.7488403320312 795.00439453125 447.93267822265625 796.4805908203125 C365.738525390625 796.7332763671875 283.171630859375 796.244873046875 201.59901428222656 785.1021728515625 C169.6227569580078 780.292236328125 137.6955108642578 774.178955078125 106.61554718017578 765.1785888671875 C81.46143341064453 758.37158203125 57.04944610595703 748.982421875 34.75800323486328 735.3773193359375 C25.12549591064453 729.5181884765625 15.186959266662598 724.1688232421875 5.661385536193848 718.121337890625 C1.1204309463500977 715.14794921875 -0.29106807708740234 708.611328125 1.6352624893188477 703.775390625 C3.9375085830688477 697.99072265625 10.040352821350098 695.1966552734375 15.969674110412598 696.428466796875 C30.71094512939453 700.0355224609375 45.53186798095703 703.208984375 60.39582061767578 706.302734375 C86.01416778564453 712.0233154296875 111.10865020751953 719.949951171875 137.08363342285156 724.1463623046875 C168.36866760253906 729.5201416015625 200.0716094970703 732.0064697265625 231.7082061767578 734.24951171875 C302.155029296875 738.1771240234375 372.81890869140625 736.6573486328125 443.32220458984375 735.0477294921875 C511.21624755859375 733.47021484375 578.8827514648438 715.1243896484375 645.9015502929688 732.9407958984375 C720.3986206054688 753.33837890625 801.0808715820312 805.703125 832.9760131835938 878.14794921875 C838.8616333007812 892.212890625 834.5388793945312 913.8280029296875 815.7496948242188 912.4915771484375 z" fill="#FF8000" fill-opacity="1.0" stroke="none" />
				<path d="M1040.994873046875 961.2296142578125 C1037.8345947265625 953.405029296875 1052.549560546875 940.1478271484375 1056.8677978515625 934.995849609375 C1090.89599609375 900.4683837890625 1131.2685546875 872.8797607421875 1171.3575439453125 845.9176025390625 C1236.4522705078125 803.1209716796875 1301.8358154296875 760.7919921875 1366.0283203125 716.6419677734375 C1458.5919189453125 656.13427734375 1551.74853515625 596.5250244140625 1641.33203125 531.6151123046875 C1664.25830078125 516.0357666015625 1687.246337890625 500.3078308105469 1712.21142578125 488.1493835449219 C1722.38671875 482.9894714355469 1732.457763671875 477.5981140136719 1742.320556640625 471.8655700683594 C1745.884033203125 469.7946472167969 1750.650634765625 469.3434753417969 1754.6357421875 470.0378112792969 C1765.06884765625 471.6978454589844 1772.702392578125 482.4695739746094 1770.65380859375 492.8811950683594 C1769.716796875 498.2261657714844 1766.64501953125 502.5705261230469 1762.34716796875 505.7636413574219 C1755.17724609375 511.0872497558594 1747.9765625 516.37646484375 1740.927978515625 521.862548828125 C1693.285888671875 562.82177734375 1637.95263671875 593.0328369140625 1586.48095703125 628.6510009765625 C1444.8349609375 729.289306640625 1294.809814453125 816.9267578125 1144.7369384765625 904.1734619140625 C1118.26171875 920.0787353515625 1091.6064453125 935.7833251953125 1065.973388671875 953.027099609375 C1062.0338134765625 955.7396240234375 1058.1395263671875 958.4847412109375 1054.2825927734375 961.310791015625 C1051.975341796875 962.978759765625 1049.6162109375 965.1226806640625 1046.6265869140625 965.141357421875 C1044.1744384765625 965.141357421875 1041.873046875 963.7021484375 1040.994873046875 961.2296142578125 z" fill="#FF8000" fill-opacity="1.0" stroke="none" />
				<path d="M2512.177001953125 614.8817138671875 C2359.178955078125 607.28369140625 2215.7529296875 549.6280517578125 2067.626220703125 516.39208984375 C1998.412841796875 502.9009704589844 1927.595947265625 492.2447204589844 1856.919921875 495.6902770996094 C1832.4384765625 497.2946472167969 1808.078125 500.3931579589844 1783.91796875 504.6580505371094 C1770.93212890625 505.7980651855469 1758.13330078125 512.8203125 1745.11767578125 510.4772644042969 C1717.7763671875 490.0998229980469 1769.797607421875 467.3167419433594 1786.74072265625 462.7959899902344 C1924.026123046875 422.5220642089844 2073.567626953125 451.1394958496094 2203.27099609375 504.8453063964844 C2302.967041015625 547.7015380859375 2408.177001953125 581.142578125 2517.5439453125 583.4150390625 C2571.47705078125 582.9376220703125 2624.58056640625 573.7847900390625 2677.31640625 563.244873046875 C2707.735107421875 550.7283935546875 2720.576171875 588.07421875 2686.728515625 593.5662841796875 C2660.314208984375 602.980712890625 2631.91748046875 606.9886474609375 2604.35498046875 610.0408935546875 C2573.755615234375 613.8551025390625 2543.0458984375 617.51611328125 2512.177001953125 614.8817138671875 z" fill="#FF8000" fill-opacity="1.0" stroke="none" />
				<path d="M2035.7470703125 1195.8355712890625 C2031.09619140625 1194.8695068359375 2027.527099609375 1191.61279296875 2026.87353515625 1186.7652587890625 C2026.254638671875 1182.1722412109375 2028.469970703125 1177.8973388671875 2030.968994140625 1174.2183837890625 C2033.323486328125 1170.7532958984375 2036.08837890625 1167.6412353515625 2038.864990234375 1164.5233154296875 C2044.135009765625 1158.611328125 2049.62451171875 1152.890380859375 2055.125732421875 1147.1982421875 C2065.943115234375 1136.0164794921875 2076.951171875 1125.025634765625 2087.849609375 1113.9190673828125 C2109.779052734375 1091.5672607421875 2132.03857421875 1069.5855712890625 2154.697021484375 1047.97412109375 C2177.072021484375 1026.6287841796875 2199.5107421875 1005.3411865234375 2222.122802734375 984.2503662109375 C2244.497802734375 963.37353515625 2266.653076171875 942.265380859375 2288.924072265625 921.2786865234375 C2311.5361328125 899.962158203125 2334.240966796875 878.755615234375 2357.078857421875 857.6763916015625 C2379.685302734375 836.81689453125 2402.21630859375 815.87646484375 2424.857666015625 795.0517578125 C2447.649169921875 774.093994140625 2470.550537109375 753.222900390625 2493.758544921875 732.72216796875 C2505.310546875 722.5179443359375 2516.83349609375 712.267578125 2528.605224609375 702.3179931640625 C2540.08203125 692.611328125 2551.31005859375 682.656005859375 2562.34130859375 672.446044921875 C2573.16455078125 662.4212646484375 2583.78515625 652.182373046875 2594.671875 642.2327880859375 C2600.25390625 637.125 2605.905517578125 632.09228515625 2611.41259765625 626.9093017578125 C2616.41064453125 622.212158203125 2621.2060546875 617.370361328125 2626.412109375 612.8988037109375 C2629.174072265625 610.528564453125 2631.984375 608.22802734375 2634.78515625 605.9102783203125 C2638.108154296875 603.0452880859375 2641.273681640625 599.9886474609375 2644.51806640625 597.037353515625 C2647.260009765625 594.5499267578125 2650.135009765625 592.17822265625 2652.7265625 589.53466796875 C2655.362548828125 586.8447265625 2658.141845703125 584.311279296875 2660.99462890625 581.860595703125 C2662.39892578125 579.15283203125 2664.4521484375 576.78564453125 2666.965576171875 575.05615234375 C2667.19677734375 574.837646484375 2667.431884765625 574.6221923828125 2667.674072265625 574.41357421875 C2672.440673828125 570.2833251953125 2678.1962890625 566.77783203125 2684.871826171875 568.1025390625 C2684.869384765625 568.11083984375 2684.8671875 568.119384765625 2684.86474609375 568.127685546875 C2692.552001953125 569.3033447265625 2699.083740234375 575.5076904296875 2700.102783203125 583.657470703125 C2700.750732421875 588.8231201171875 2699.050048828125 593.5260009765625 2696.036376953125 597.61572265625 C2695.18017578125 598.7784423828125 2694.12744140625 599.796630859375 2693.109130859375 600.8204345703125 C2692.62939453125 601.304931640625 2692.1337890625 601.7640380859375 2691.6279296875 602.2110595703125 C2689.73681640625 604.479736328125 2687.354248046875 606.2882080078125 2684.60693359375 607.4522705078125 C2683.98828125 608.08984375 2683.370361328125 608.726318359375 2682.7431640625 609.3470458984375 C2680.49609375 611.5789794921875 2678.11572265625 613.6470947265625 2676.252685546875 615.218505859375 C2674.476806640625 616.7109375 2672.88037109375 618.4173583984375 2671.20263671875 620.0255126953125 C2668.616943359375 622.512939453125 2666.00244140625 624.9771728515625 2663.3876953125 627.4356689453125 C2658.59228515625 631.94189453125 2654.149658203125 636.78369140625 2649.4697265625 641.4056396484375 C2644.52978515625 646.2821044921875 2639.1904296875 650.7015380859375 2634.12890625 655.45068359375 C2628.448486328125 660.7784423828125 2622.82568359375 666.169677734375 2617.16259765625 671.5205078125 C2606.484130859375 681.61474609375 2595.510498046875 691.379150390625 2584.79736328125 701.4271240234375 C2579.39453125 706.4945068359375 2574.037841796875 711.608154296875 2568.721923828125 716.76220703125 C2563.26123046875 722.0494384765625 2558.020263671875 727.562255859375 2552.686767578125 732.9766845703125 C2531.214111328125 754.79052734375 2509.035888671875 775.927734375 2486.89208984375 797.0474853515625 C2464.37255859375 818.5142822265625 2441.650390625 839.7613525390625 2418.8994140625 860.9736328125 C2396.2119140625 882.122314453125 2373.697998046875 903.438720703125 2350.918212890625 924.4832763671875 C2328.230712890625 945.441162109375 2305.473876953125 966.3353271484375 2282.62451171875 987.1195068359375 C2260.122314453125 1007.585693359375 2237.9150390625 1028.375732421875 2215.389404296875 1048.818603515625 C2192.262451171875 1069.8111572265625 2169.30322265625 1090.9830322265625 2145.777099609375 1111.530029296875 C2133.8779296875 1121.925048828125 2121.81689453125 1132.11181640625 2109.79638671875 1142.3623046875 C2097.677734375 1152.699462890625 2085.60498046875 1163.1002197265625 2073.335693359375 1173.263916015625 C2068.00244140625 1177.683349609375 2062.645751953125 1182.068115234375 2057.150390625 1186.28515625 C2054.113525390625 1188.6220703125 2051.0185546875 1190.8665771484375 2047.6982421875 1192.787109375 C2044.811767578125 1194.45166015625 2041.293212890625 1196.0440673828125 2037.834716796875 1196.0440673828125 C2037.13427734375 1196.0440673828125 2036.436767578125 1195.978759765625 2035.7470703125 1195.8355712890625 z" fill="#FF8000" fill-opacity="1.0" stroke="none" />
				<path d="M4.730965614318848 717.342529296875 C4.545235633850098 717.26513671875 4.362801551818848 717.1805419921875 4.183907508850098 717.0892333984375 C4.031380653381348 717.012939453125 3.8792810440063477 716.9327392578125 3.7285852432250977 716.847412109375 C3.7307214736938477 716.84521484375 3.7326745986938477 716.8433837890625 3.7348108291625977 716.84130859375 C2.6008386611938477 716.1651611328125 1.6398401260375977 715.203369140625 0.9750452041625977 714.0360107421875 C-0.25127315521240234 711.87841796875 -0.25127315521240234 709.477783203125 0.5874719619750977 707.1986083984375 C1.9873743057250977 703.386474609375 6.273812294006348 701.0263671875 9.611580848693848 699.1463623046875 C13.533577919006348 696.9307861328125 17.61170196533203 694.9930419921875 21.70728302001953 693.1129150390625 C29.45868682861328 689.555419921875 37.29688262939453 686.2060546875 45.14667510986328 682.868408203125 C61.22223663330078 676.04248046875 77.34406280517578 669.3265380859375 93.53528594970703 662.7724609375 C124.56416320800781 650.2139892578125 156.00953674316406 638.69677734375 187.3218536376953 626.8671875 C195.0617218017578 623.9459228515625 202.76112365722656 620.93212890625 210.40260314941406 617.773681640625 C218.18299865722656 614.557373046875 225.91127014160156 611.2081298828125 233.73793029785156 608.119140625 C241.7091827392578 604.9722900390625 249.78456115722656 602.1146240234375 257.87725830078125 599.285888671875 C266.31707763671875 596.3299560546875 274.739501953125 593.3104248046875 283.17352294921875 590.3370361328125 C301.30841064453125 583.945068359375 319.75567626953125 578.51318359375 337.87701416015625 572.404052734375 C371.0787353515625 561.130126953125 403.95977783203125 548.9583740234375 436.88330078125 536.8927001953125 C470.44012451171875 524.594482421875 504.01422119140625 512.3426513671875 537.5073852539062 499.8593444824219 C554.2423706054688 493.6233825683594 570.9600219726562 487.3355407714844 587.6718139648438 481.0534362792969 C595.9381713867188 477.9469909667969 604.1985473632812 474.8290710449219 612.5227661132812 471.8847351074219 C619.8807983398438 469.2758483886719 627.2620239257812 466.7478942871094 634.5969848632812 464.0812683105469 C650.1749877929688 458.4237976074219 665.6952514648438 452.5987243652344 681.2732543945312 446.9412536621094 C696.0241088867188 441.5789489746094 710.7692260742188 436.2223815917969 725.4622192382812 430.7095642089844 C740.7279663085938 424.9827575683594 756.0167846679688 419.3368835449219 771.3461303710938 413.7952575683594 C779.1669311523438 410.9665222167969 786.9415893554688 408.0221862792969 794.7334594726562 405.1298522949219 C802.0278930664062 402.4168395996094 809.3917846679688 399.8888854980469 816.5936889648438 396.9329528808594 C820.6376342773438 395.2748718261719 824.7233276367188 393.8177185058594 828.4579467773438 392.5481872558594 C832.0641479492188 391.3246765136719 835.6701049804688 390.1051940917969 839.2763061523438 388.8918151855469 C842.4793090820312 384.9131774902344 847.3580932617188 382.4712829589844 852.5394897460938 382.4712829589844 C859.3654174804688 382.4655456542969 865.6707153320312 386.6941833496094 868.2621459960938 393.0052185058594 C870.5702514648438 398.6163024902344 869.6504516601562 405.2050476074219 865.8904418945312 409.9657897949219 C862.1270141601562 414.7431335449219 855.3184204101562 417.5634460449219 849.2630004882812 416.1629333496094 C848.8573608398438 416.3344421386719 848.4517211914062 416.5052185058594 848.0448608398438 416.6702575683594 C845.3781127929688 417.7576599121094 842.6882934570312 418.7642517089844 840.0156860351562 419.8228454589844 C837.7828979492188 420.7137145996094 835.5673217773438 421.6392517089844 833.3054809570312 422.4548034667969 C830.4570922851562 423.4799499511719 827.5685424804688 424.3891296386719 824.6958618164062 425.3470153808594 C817.4710083007812 427.8365173339844 810.3421020507812 430.5950622558594 803.1559448242188 433.2027282714844 C795.4623413085938 435.9966735839844 787.7630004882812 438.7675476074219 780.1040649414062 441.6482849121094 C764.8557739257812 447.3866882324219 749.5437622070312 452.9399108886719 734.2144165039062 458.4585876464844 C719.3074340820312 463.8208923339844 704.4871215820312 469.3973083496094 689.6321411132812 474.9042663574219 C674.2622680664062 480.6080017089844 658.8403930664062 486.1728210449219 643.4821166992188 491.9112243652344 C636.0835571289062 494.6762390136719 628.7371215820312 497.5916442871094 621.3500366210938 500.3857116699219 C613.3036499023438 503.4284362792969 605.2051391601562 506.3149108886719 597.1123657226562 509.2304382324219 C580.4468383789062 515.2291259765625 563.7697143554688 521.2047119140625 547.1213989257812 527.2669677734375 C512.8532104492188 539.750244140625 478.65423583984375 552.3955078125 444.44390869140625 565.0291748046875 C411.40191650390625 577.22900390625 378.3426513671875 589.3536376953125 345.61883544921875 602.40380859375 C330.61346435546875 608.3851318359375 315.8394775390625 614.9276123046875 300.8109130859375 620.85693359375 C292.72979736328125 624.044189453125 284.5792236328125 627.075439453125 276.46331787109375 630.1817626953125 C268.3995361328125 633.2650146484375 260.376220703125 636.4581298828125 252.23146057128906 639.3272705078125 C239.1378936767578 643.952880859375 225.8271026611328 647.9384765625 212.65992736816406 652.337646484375 C197.79811096191406 657.4080810546875 183.06312561035156 662.8677978515625 168.2730255126953 668.157958984375 C152.0528106689453 673.9599609375 135.83265686035156 679.761962890625 119.55462646484375 685.41357421875 C103.12042999267578 691.1114501953125 86.54743194580078 696.468017578125 69.96283721923828 701.691650390625 C61.60980987548828 704.31787109375 53.26831817626953 706.9730224609375 44.90949249267578 709.5819091796875 C36.92670440673828 712.080810546875 28.86865997314453 714.6260986328125 20.70075225830078 716.465576171875 C17.94721221923828 717.09033203125 15.182198524475098 717.674560546875 12.376594543457031 718.0390625 C11.428720474243164 718.162109375 10.480355262756348 718.23974609375 9.542305946350098 718.23974609375 C7.890084266662598 718.23974609375 6.268563270568848 717.998779296875 4.730965614318848 717.342529296875 z" fill="#FF8000" fill-opacity="1.0" stroke="none" />
				<path d="M1548.99072265625 594.824951171875 C1548.557861328125 579.2459716796875 1546.419189453125 563.544677734375 1537.677001953125 550.1500244140625 C1531.77001953125 537.737548828125 1526.571533203125 524.9456787109375 1519.485107421875 513.114501953125 C1472.346435546875 423.5074157714844 1357.648681640625 399.0391540527344 1264.2021484375 409.7040710449219 C1163.1966552734375 419.8162536621094 1062.3017578125 440.4393005371094 960.3630981445312 432.5020446777344 C926.2053833007812 429.6950378417969 892.1063842773438 418.6020202636719 859.1255493164062 410.9748229980469 C856.0991821289062 410.1657409667969 852.2221069335938 409.2587585449219 849.2449340820312 407.4372253417969 C840.9179077148438 403.5396423339844 844.1893920898438 390.7134704589844 853.2084350585938 389.5899353027344 C872.3473510742188 388.2091979980469 891.4159545898438 393.6801452636719 910.3598022460938 395.9256286621094 C962.7882690429688 401.7369079589844 1015.6602172851562 407.3221130371094 1068.40869140625 402.5408630371094 C1128.4036865234375 400.5420837402344 1186.2489013671875 384.5784606933594 1244.3260498046875 371.0386657714844 C1292.958984375 363.9331970214844 1342.98388671875 370.2259216308594 1390.3250732421875 382.3771667480469 C1426.4605712890625 393.1589050292969 1464.6719970703125 403.8648376464844 1493.0556640625 429.9555358886719 C1522.13232421875 459.7577819824219 1545.4794921875 496.1347351074219 1558.9599609375 535.6011962890625 C1563.102294921875 550.9510498046875 1565.02294921875 567.0269775390625 1565.541748046875 582.902587890625 C1566.423583984375 589.7978515625 1566.9111328125 600.76953125 1557.71533203125 601.534912109375 C1553.67529296875 601.791259765625 1549.697265625 598.8885498046875 1548.99072265625 594.824951171875 z" fill="#FF8000" fill-opacity="1.0" stroke="none" />
				<path d="M1558.145751953125 585.9290771484375 C1534.140869140625 574.352783203125 1544.663818359375 515.6409912109375 1546.85791015625 493.2989196777344 C1561.296630859375 365.4163513183594 1636.083984375 318.7542419433594 1675.22509765625 207.91464233398438 C1682.177734375 184.15643310546875 1686.918212890625 159.5169677734375 1689.54296875 134.90606689453125 C1691.0439453125 124.16094970703125 1684.714111328125 100.05377197265625 1703.1875 104.81182861328125 C1713.20263671875 110.55156707763672 1710.947265625 124.99730682373047 1713.822265625 134.76812744140625 C1721.01806640625 167.881103515625 1726.73974609375 201.4195556640625 1725.68212890625 235.42428588867188 C1726.681884765625 250.66268920898438 1726.37841796875 266.1148376464844 1721.547119140625 280.7404479980469 C1714.933349609375 296.4908142089844 1690.877685546875 289.8324890136719 1693.095947265625 272.9318542480469 C1699.306884765625 243.63912963867188 1706.912353515625 214.77572631835938 1701.835205078125 184.71337890625 C1692.051025390625 221.32736206054688 1674.7265625 255.19821166992188 1659.2294921875 289.5978698730469 C1639.82861328125 330.6409606933594 1624.103759765625 373.8943786621094 1609.939208984375 416.8757019042969 C1599.073974609375 448.3107604980469 1590.15283203125 480.4316101074219 1583.283203125 512.97412109375 C1580.9052734375 524.8277587890625 1578.787841796875 536.734130859375 1576.677001953125 548.635986328125 C1572.768798828125 560.75927734375 1576.508056640625 587.203857421875 1558.145751953125 585.9290771484375 z" fill="#FF8000" fill-opacity="1.0" stroke="none" />
				<path d="M1578.631103515625 591.0770263671875 C1569.64306640625 579.6563720703125 1582.09033203125 527.0611572265625 1584.344970703125 510.8875427246094 C1595.48583984375 449.5370788574219 1617.98828125 390.6579284667969 1651.849853515625 338.2295837402344 C1673.450439453125 302.0168151855469 1703.914794921875 272.3296813964844 1726.50048828125 236.82931518554688 C1744.81201171875 211.85531616210938 1752.523193359375 182.2381591796875 1763.873291015625 154.0045166015625 C1770.527099609375 134.7872314453125 1775.09716796875 114.97955322265625 1779.986328125 95.26971435546875 C1783.82958984375 84.85516357421875 1778.345458984375 57.69586181640625 1796.1728515625 62.49127197265625 C1813.677734375 75.5787353515625 1817.21630859375 118.33441162109375 1822.136474609375 139.2293701171875 C1829.787353515625 169.3470458984375 1832.198974609375 201.690673828125 1821.415283203125 231.35739135742188 C1817.312255859375 242.23947143554688 1799.83251953125 238.69503784179688 1800.27197265625 227.07162475585938 C1800.912841796875 220.32516479492188 1800.833984375 213.57711791992188 1800.9912109375 206.81356811523438 C1800.958740234375 179.78955078125 1798.982421875 150.8623046875 1794.078369140625 124.71466064453125 C1774.078369140625 217.65463256835938 1712.030517578125 292.3488464355469 1668.4873046875 374.7763366699219 C1645.46337890625 420.0645446777344 1627.34228515625 467.6617126464844 1613.109619140625 516.4024658203125 C1607.11376953125 537.7957763671875 1600.72998046875 559.123291015625 1596.026611328125 580.841552734375 C1597.42822265625 590.4434814453125 1586.428955078125 598.7113037109375 1578.631103515625 591.0770263671875 z" fill="#FF8000" fill-opacity="1.0" stroke="none" />
				<path d="M1603.807373046875 563.5982666015625 C1613.701904296875 476.0393981933594 1671.911376953125 387.9953308105469 1726.66455078125 320.7708435058594 C1746.68505859375 297.1499938964844 1770.097412109375 276.6673278808594 1789.695068359375 252.67465209960938 C1801.684814453125 238.00448608398438 1812.39404296875 222.26998901367188 1823.8525390625 207.15487670898438 C1839.37744140625 184.6951904296875 1855.861083984375 162.71539306640625 1868.19189453125 138.271728515625 C1876.38232421875 121.4287109375 1883.893798828125 104.26068115234375 1892.0908203125 87.416748046875 C1898.234130859375 74.8636474609375 1901.48681640625 61.09197998046875 1907.94384765625 48.67242431640625 C1911.66943359375 41.87744140625 1917.005126953125 35.98748779296875 1919.144775390625 28.3778076171875 C1923.99951171875 18.982177734375 1920.96435546875 -0.52685546875 1935.509521484375 0.01092529296875 C1951.366455078125 3.38214111328125 1951.03857421875 42.2152099609375 1955.150146484375 55.90325927734375 C1965.907470703125 108.86456298828125 1966.9375 144.31866455078125 1946.417724609375 195.25579833984375 C1942.832275390625 205.94552612304688 1935.7373046875 222.22579956054688 1921.8154296875 218.70663452148438 C1915.70703125 217.02328491210938 1911.4609375 211.34848022460938 1911.414794921875 205.04330444335938 C1911.148193359375 194.09967041015625 1915.769287109375 183.92376708984375 1916.888671875 173.16583251953125 C1917.975341796875 155.80194091796875 1918.631591796875 138.41796875 1918.946044921875 121.0206298828125 C1900.95751953125 162.9835205078125 1878.5185546875 204.29110717773438 1847.500244140625 238.10848999023438 C1829.03466796875 258.8970642089844 1806.626708984375 275.5876159667969 1787.322265625 295.5612487792969 C1766.0107421875 317.6222839355469 1745.1259765625 340.1772155761719 1726.1376953125 364.2945251464844 C1688.99462890625 409.4554138183594 1664.261962890625 463.0069274902344 1638.315673828125 514.99658203125 C1631.39697265625 528.7764892578125 1625.659912109375 543.1026611328125 1618.896728515625 556.9473876953125 C1616.333740234375 561.049072265625 1614.9375 567.8909912109375 1609.270751953125 568.35986328125 C1606.552001953125 568.35986328125 1604.18017578125 566.2947998046875 1603.807373046875 563.5982666015625 z" fill="#FF8000" fill-opacity="1.0" stroke="none" />
				<path d="M1640.556884765625 543.8236083984375 C1625.238525390625 511.2021179199219 1716.696533203125 403.2166442871094 1740.167236328125 375.7409362792969 C1777.847412109375 331.7947692871094 1821.850830078125 294.4527282714844 1867.299072265625 258.9153747558594 C1924.77587890625 204.52194213867188 1980.123046875 146.486328125 2020.612060546875 78.0557861328125 C2028.1982421875 64.30023193359375 2037.255615234375 51.47918701171875 2045.40478515625 38.07769775390625 C2052.467529296875 28.7587890625 2054.3701171875 11.17901611328125 2069.63525390625 13.27923583984375 C2082.471923828125 15.0780029296875 2084.08740234375 29.03399658203125 2083.542724609375 39.6220703125 C2084.02734375 57.7252197265625 2082.01025390625 75.79339599609375 2079.500732421875 93.691650390625 C2073.889404296875 130.4661865234375 2069.72607421875 169.911865234375 2049.533203125 202.00244140625 C2044.282958984375 212.16122436523438 2027.92041015625 227.86605834960938 2019.524169921875 212.36325073242188 C2016.873046875 206.87265014648438 2017.44384765625 200.7445068359375 2018.23583984375 194.90057373046875 C2018.72119140625 179.63897705078125 2020.914306640625 164.52471923828125 2023.438232421875 149.47943115234375 C1991.28564453125 190.2537841796875 1951.63818359375 224.12240600585938 1915.574462890625 261.2732849121094 C1860.49609375 317.4226989746094 1798.75146484375 366.7450866699219 1747.161865234375 426.3758239746094 C1726.9345703125 449.0258483886719 1708.470947265625 473.1230163574219 1690.834228515625 497.8243103027344 C1682.0283203125 509.7344665527344 1673.21240234375 521.6461181640625 1664.495849609375 533.625 C1659.503173828125 541.388916015625 1649.462890625 554.256591796875 1640.556884765625 543.8236083984375 z" fill="#FF8000" fill-opacity="1.0" stroke="none" />
				<path d="M1733.964599609375 501.8559265136719 C1717.589111328125 478.3617858886719 1823.25146484375 367.3711853027344 1842.21533203125 345.8097839355469 C1881.9501953125 299.5635681152344 1935.038818359375 268.6746520996094 1985.795654296875 236.20748901367188 C2032.455078125 200.08984375 2074.60009765625 158.2283935546875 2112.3642578125 112.98375701904297 C2119.40234375 101.60272216796875 2137.8515625 98.29193115234375 2144.795166015625 111.48438262939453 C2151.570068359375 131.70306396484375 2141.946533203125 157.23876953125 2139.3671875 178.0721435546875 C2129.647216796875 230.80722045898438 2106.4267578125 284.5223083496094 2063.9931640625 318.8520202636719 C2052.5302734375 325.8905944824219 2039.2783203125 310.7807312011719 2047.684326171875 300.3001403808594 C2059.324951171875 288.2480163574219 2070.98681640625 276.1753845214844 2077.795654296875 260.5188903808594 C2089.169189453125 235.96713256835938 2093.366943359375 208.88961791992188 2102.618896484375 183.55120849609375 C2064.53466796875 220.21762084960938 2021.451416015625 251.11361694335938 1980.63037109375 284.5387878417969 C1935.568115234375 316.1755065917969 1885.934326171875 341.5054626464844 1844.575439453125 378.3097839355469 C1814.67041015625 404.4106140136719 1790.285888671875 435.8363952636719 1767.25732421875 467.9809265136719 C1760.923095703125 476.7745056152344 1754.97802734375 485.8345642089844 1748.82666015625 494.7520446777344 C1745.751220703125 499.7361755371094 1740.07666015625 507.4690856933594 1733.964599609375 501.8559265136719 z" fill="#FF8000" fill-opacity="1.0" stroke="none" />
				<path d="M1785.364013671875 485.0433044433594 C1773.396484375 463.0444030761719 1824.069091796875 416.6557312011719 1839.5107421875 402.0566101074219 C1915.921142578125 330.2824401855469 2020.78369140625 305.8020935058594 2114.107666015625 263.9275817871094 C2128.18798828125 257.0602722167969 2139.259765625 245.73336791992188 2147.9482421875 232.87887573242188 C2152.216552734375 227.58139038085938 2155.4560546875 220.55453491210938 2161.94140625 217.64254760742188 C2169.837890625 214.07357788085938 2179.418701171875 221.28231811523438 2177.943115234375 229.90048217773438 C2166.7138671875 257.9891052246094 2154.987548828125 286.4799499511719 2138.543212890625 312.0135192871094 C2126.370361328125 328.0455017089844 2112.77001953125 343.2847595214844 2097.587158203125 356.5317077636719 C2092.3115234375 360.9164733886719 2086.353515625 364.3698425292969 2080.19287109375 367.3316345214844 C2074.408203125 370.1141052246094 2067.9755859375 362.8370056152344 2071.515869140625 357.4513854980469 C2079.95947265625 344.4974060058594 2090.61865234375 333.1464538574219 2098.5517578125 319.8382263183594 C2030.045166015625 358.9861755371094 1949.375732421875 373.6161804199219 1883.42724609375 417.8506774902344 C1863.09033203125 432.1077575683594 1843.5888671875 447.5596618652344 1824.74560546875 463.7353210449219 C1818.471435546875 469.3361511230469 1812.162109375 474.9100036621094 1806.1328125 480.7793884277344 C1801.298583984375 487.1155700683594 1791.635498046875 492.9889831542969 1785.364013671875 485.0433044433594 z" fill="#FF8000" fill-opacity="1.0" stroke="none" />
				<path d="M1984.814453125 466.4209899902344 C1983.96435546875 460.4739685058594 1989.219482421875 456.9775085449219 1994.50390625 456.5411071777344 C2006.41796875 454.1421813964844 2017.7265625 449.5916442871094 2029.473876953125 446.4954528808594 C2060.676513671875 432.3622741699219 2087.88427734375 410.0485534667969 2107.537109375 381.8975524902344 C2065.728271484375 404.4195251464844 2018.86328125 414.1901550292969 1974.923095703125 431.3031921386719 C1949.226318359375 441.6114196777344 1927.041015625 458.6316833496094 1902.1875 470.4696960449219 C1888.1796875 476.4303894042969 1882.879150390625 461.4631042480469 1891.53076171875 451.6579284667969 C1903.9248046875 435.3088073730469 1922.437744140625 425.1361999511719 1939.57861328125 414.4866638183594 C1959.33642578125 401.8693542480469 1981.08154296875 393.1324157714844 2003.13427734375 385.4412536621094 C2044.280029296875 372.1763610839844 2085.625732421875 359.5133972167969 2126.583251953125 345.6565856933594 C2141.7783203125 342.0888366699219 2149.1162109375 327.9589538574219 2159.51123046875 317.7447204589844 C2171.904541015625 302.4176940917969 2192.71484375 304.3947448730469 2185.212890625 327.6646423339844 C2176.462890625 354.3307800292969 2158.589599609375 377.4314880371094 2138.4951171875 396.6636657714844 C2127.1630859375 407.2610778808594 2114.743408203125 416.6611022949219 2101.947998046875 425.3962097167969 C2090.108154296875 433.2279968261719 2078.53515625 441.5292663574219 2066.112060546875 448.4250183105469 C2055.007080078125 454.2257995605469 2042.986328125 457.9751892089844 2031.9072265625 463.8467712402344 C2020.4267578125 470.6924743652344 2006.864990234375 470.5384216308594 1994.1796875 473.5301208496094 C1989.79248046875 474.4002380371094 1985.384765625 470.7353210449219 1984.814453125 466.4209899902344 z" fill="#FF8000" fill-opacity="1.0" stroke="none" />
			</svg>
		</symbol>
	</defs>
	<g clip-path="url(#boundary-clip)" id="elements-group">
		<g>
			<use class="svg1-400" transform="translate(2000.0,2000.0) translate(1000.0,1000.0) scale(0.98629916,0.98629916) rotate(0.0) translate(-1000.0,-1000.0)" x="0" xlink:href="#1-400" y="0" />
			<use class="svg1-400" transform="translate(2000.0,-0.0) translate(1000.0,1000.0) scale(0.98629916,0.98629916) rotate(0.0) translate(-1000.0,-1000.0)" x="0" xlink:href="#1-400" y="0" />
			<use class="svg1-400" transform="translate(2000.0,-2000.0) translate(1000.0,1000.0) scale(0.98629916,0.98629916) rotate(0.0) translate(-1000.0,-1000.0)" x="0" xlink:href="#1-400" y="0" />
			<use class="svg1-400" transform="translate(0.0,2000.0) translate(1000.0,1000.0) scale(0.98629916,0.98629916) rotate(0.0) translate(-1000.0,-1000.0)" x="0" xlink:href="#1-400" y="0" />
			<use class="svg1-400" transform="translate(0.0,-0.0) translate(1000.0,1000.0) scale(0.98629916,0.98629916) rotate(0.0) translate(-1000.0,-1000.0)" x="0" xlink:href="#1-400" y="0" />
			<use class="svg1-400" transform="translate(0.0,-2000.0) translate(1000.0,1000.0) scale(0.98629916,0.98629916) rotate(0.0) translate(-1000.0,-1000.0)" x="0" xlink:href="#1-400" y="0" />
			<use class="svg1-400" transform="translate(-2000.0,2000.0) translate(1000.0,1000.0) scale(0.98629916,0.98629916) rotate(0.0) translate(-1000.0,-1000.0)" x="0" xlink:href="#1-400" y="0" />
			<use class="svg1-400" transform="translate(-2000.0,-0.0) translate(1000.0,1000.0) scale(0.98629916,0.98629916) rotate(0.0) translate(-1000.0,-1000.0)" x="0" xlink:href="#1-400" y="0" />
			<use class="svg1-400" transform="translate(-2000.0,-2000.0) translate(1000.0,1000.0) scale(0.98629916,0.98629916) rotate(0.0) translate(-1000.0,-1000.0)" x="0" xlink:href="#1-400" y="0" />
		</g>
		<style>#svg1-400 * {}</style>
	</g>
</svg>