<?xml version="1.0" encoding="utf-8" standalone="yes"?>
<!DOCTYPE svg PUBLIC "-//W3C//DTD SVG 1.1//EN" "http://www.w3.org/Graphics/SVG/1.1/DTD/svg11.dtd">
<svg capture-custom-pattern-version="1.0" fill="none" height="2000px" id="Contours" stroke="black" stroke-linecap="round" stroke-linejoin="round" version="1.1" viewBox="0 0 2000 2000" width="2000px" x="0px" xml:space="preserve" xmlns="http://www.w3.org/2000/svg" xmlns:xlink="http://www.w3.org/1999/xlink" y="0px">
	<defs>
		<clipPath id="boundary-clip">
			<rect fill="none" height="100%" stroke="none" width="100%" x="0" y="0" />
		</clipPath>
		<symbol id="1-400">
			<svg fill="#000000" height="100%" id="svg1-400" isColored="true" opacity="1.0" space="preserve" stroke="#000000" stroke-linecap="round" stroke-linejoin="round" version="1.1" viewBox="-2.490430124761719e-07 0.0 1833.6491751914082 954.973403803375" width="100%" x="0px" y="0px">
				<desc />
				<path d="M391.40264892578125 951.9860229492188 C388.3863525390625 949.1848754882812 387.2977294921875 944.8093872070312 385.74267578125 941.1029663085938 C381.71783447265625 929.2072143554688 378.779296875 916.9574584960938 376.0670166015625 904.7045288085938 C372.4381103515625 887.9193725585938 370.0084228515625 870.9310913085938 368.270263671875 853.8490600585938 C366.12646484375 832.8298950195312 365.32672119140625 811.4834594726562 369.05487060546875 790.5949096679688 C375.4683837890625 752.2428588867188 398.1168212890625 718.4463500976562 424.23101806640625 690.4662475585938 C437.38861083984375 677.5036010742188 451.5928955078125 663.4223022460938 466.08642578125 652.5949096679688 C510.71405029296875 620.0609741210938 561.8760375976562 598.2769165039062 610.5415649414062 572.7014770507812 C614.6033325195312 570.3964233398438 618.6536865234375 568.0800170898438 622.7310791015625 565.8060913085938 C624.0006103515625 565.0990600585938 625.7037353515625 565.6889038085938 626.4576416015625 566.8529663085938 C627.2427978515625 568.0639038085938 627.0123291015625 569.7592163085938 625.8951416015625 570.6849975585938 C620.1256103515625 575.4584350585938 614.0279541015625 579.7592163085938 607.5669555664062 583.5481567382812 C563.5376586914062 609.2992553710938 517.2191772460938 631.3118286132812 475.82269287109375 661.2946166992188 C461.68878173828125 672.0300903320312 449.0384521484375 684.5232543945312 436.61395263671875 697.1537475585938 C431.2960205078125 702.3648071289062 426.56280517578125 708.1128540039062 421.880126953125 713.8914184570312 C406.79949951171875 732.7992553710938 394.364501953125 754.1875610351562 387.1925048828125 777.3598022460938 C382.96600341796875 792.3383178710938 380.9049072265625 807.8781127929688 380.7049560546875 823.4325561523438 C380.55517578125 860.7517700195312 385.30120849609375 897.9837036132812 392.80145263671875 934.4974975585938 C393.60003662109375 938.4955444335938 394.67572021484375 942.4320678710938 395.4498291015625 946.4349975585938 C395.7193603515625 947.9467163085938 396.0084228515625 949.6068725585938 395.2974853515625 951.0404663085938 C394.57623291015625 952.4949340820312 392.687744140625 952.8379516601562 391.40264892578125 951.9860229492188 z" fill="#FF7F00" fill-opacity="1.0" stroke="none" />
				<path d="M394.5960693359375 954.5121459960938 C388.19219970703125 950.6782836914062 392.6214599609375 934.2842407226562 394.27581787109375 928.3361206054688 C402.105712890625 902.4592895507812 415.419677734375 877.8038940429688 434.4010009765625 858.4063110351562 C447.372314453125 845.5602416992188 462.89739990234375 834.5715942382812 480.44012451171875 829.0703735351562 C497.29779052734375 824.5050659179688 514.839111328125 823.3020629882812 531.983154296875 820.1447143554688 C558.9835815429688 815.9804077148438 585.5667114257812 809.0327758789062 610.9487915039062 798.8831176757812 C625.7618408203125 792.8014526367188 640.427978515625 786.1121215820312 654.041748046875 777.6409301757812 C662.5919189453125 772.2504272460938 670.29541015625 765.6511840820312 677.59228515625 758.6840209960938 C681.4261474609375 755.4370727539062 686.741455078125 761.1458129882812 682.725341796875 764.7385864257812 C677.944091796875 769.2869262695312 673.1513671875 773.3738403320312 668.78369140625 777.6250610351562 C662.8193359375 783.9431762695312 656.3416748046875 789.6879272460938 649.342529296875 794.8401489257812 C642.373779296875 800.3566284179688 634.7206420898438 804.9100952148438 626.733154296875 808.7892456054688 C594.779296875 824.3056030273438 559.8580932617188 832.2575073242188 524.9010620117188 837.5000610351562 C509.93798828125 840.0615844726562 494.45611572265625 840.9242553710938 480.0743408203125 846.0684204101562 C447.15045166015625 859.8252563476562 425.66845703125 890.2224731445312 411.96063232421875 922.0554809570312 C408.4827880859375 930.0076293945312 405.4066162109375 938.1254272460938 402.67803955078125 946.3637084960938 C401.38671875 950.0254516601562 399.81414794921875 956.7993774414062 394.5960693359375 954.5121459960938 z" fill="#FF7F00" fill-opacity="1.0" stroke="none" />
				<path d="M1324.3841552734375 779.3590698242188 C1296.997802734375 778.2202758789062 1269.63134765625 774.4574584960938 1243.0599365234375 767.6831665039062 C1221.9273681640625 762.3209838867188 1200.8016357421875 756.6870727539062 1180.314208984375 749.1823120117188 C1125.438720703125 728.4188842773438 1072.331298828125 703.5409545898438 1019.97021484375 677.1514282226562 C983.315673828125 659.5418090820312 945.9783935546875 643.4003295898438 909.122314453125 626.2107543945312 C854.9747314453125 601.8078002929688 789.4232177734375 577.7312622070312 732.96240234375 608.3941040039062 C709.062255859375 620.8031616210938 690.6080322265625 641.6289672851562 677.59716796875 664.9220581054688 C674.1610107421875 671.3867797851562 671.240966796875 678.0922241210938 668.5989990234375 684.9149780273438 C666.87548828125 689.4901733398438 665.3267822265625 694.1275024414062 663.5560302734375 698.6830444335938 C662.614013671875 700.9987182617188 661.74951171875 703.5693969726562 659.6849365234375 705.1361694335938 C658.4818115234375 706.0463256835938 656.5325927734375 706.1791381835938 655.2825927734375 705.2924194335938 C653.1224365234375 703.7611694335938 652.7357177734375 701.1439819335938 652.4423828125 698.6908569335938 C651.884765625 688.3038940429688 655.5595703125 678.0928344726562 659.173095703125 668.5033569335938 C664.593994140625 654.7241821289062 672.7611083984375 642.1651000976562 681.86083984375 630.5465698242188 C704.760009765625 601.4856567382812 739.5625 582.6223754882812 776.2825927734375 578.6049194335938 C812.6033935546875 575.1509399414062 848.7840576171875 584.4966430664062 882.3724365234375 597.6830444335938 C909.2142333984375 607.9177856445312 934.9710693359375 620.6930541992188 961.1536865234375 632.4566040039062 C986.792236328125 644.0584106445312 1012.5371704101562 655.4406127929688 1037.7047119140625 668.0419311523438 C1077.150634765625 687.9321899414062 1117.089599609375 706.8323364257812 1158.16162109375 723.1514282226562 C1177.8824462890625 731.4077758789062 1197.8648681640625 739.0202026367188 1218.52490234375 744.6006469726562 C1245.95068359375 752.5558471679688 1271.8719482421875 758.6294555664062 1299.90478515625 761.6055297851562 C1320.640625 763.6876831054688 1341.9810791015625 764.2406616210938 1362.7279052734375 763.9603881835938 C1367.9197998046875 763.9088745117188 1373.136962890625 763.7821655273438 1378.28369140625 763.0658569335938 C1381.9127197265625 762.5247192382812 1386.148193359375 761.1288452148438 1389.0169677734375 764.1283569335938 C1391.1322021484375 765.7897338867188 1391.5186767578125 768.7723999023438 1390.3359375 771.0680541992188 C1388.6455078125 774.9556274414062 1384.2520751953125 775.2212524414062 1380.6458740234375 776.1911010742188 C1362.22119140625 780.1994018554688 1343.14306640625 780.0653686523438 1324.3841552734375 779.3590698242188 z" fill="#FF7F00" fill-opacity="1.0" stroke="none" />
				<path d="M1380.3726806640625 771.9660034179688 C1380.395751953125 771.6500854492188 1380.488037109375 771.3715209960938 1380.630859375 771.1356811523438 C1380.888427734375 770.6307983398438 1381.283935546875 770.1834106445312 1381.6920166015625 769.7921752929688 C1381.7510986328125 768.6299438476562 1382.378662109375 767.4935913085938 1383.0562744140625 766.5206909179688 C1384.3336181640625 764.6808471679688 1385.9351806640625 763.0167846679688 1387.4703369140625 761.3917846679688 C1390.7515869140625 757.9035034179688 1394.0718994140625 754.4464721679688 1397.3492431640625 750.9542846679688 C1403.7125244140625 744.1808471679688 1410.1226806640625 737.4425659179688 1416.6773681640625 730.8527221679688 C1420.5758056640625 726.9308471679688 1424.5562744140625 723.0949096679688 1428.5093994140625 719.2316284179688 C1432.502197265625 715.3322143554688 1436.49853515625 711.4406127929688 1440.3843994140625 707.7120971679688 C1454.4820556640625 694.1769409179688 1468.7164306640625 680.7785034179688 1482.9781494140625 667.4113159179688 C1496.7515869140625 654.5011596679688 1510.5562744140625 641.6183471679688 1524.3570556640625 628.7355346679688 C1538.6929931640625 615.3566284179688 1553.0328369140625 601.9855346679688 1567.3765869140625 588.6144409179688 C1582.1343994140625 574.8527221679688 1596.9000244140625 561.0988159179688 1611.6812744140625 547.3605346679688 C1625.9508056640625 534.0988159179688 1640.1695556640625 520.7785034179688 1654.4195556640625 507.49334716796875 C1669.3023681640625 493.62225341796875 1684.1695556640625 479.73162841796875 1699.0601806640625 465.86444091796875 C1713.4234619140625 452.48553466796875 1727.7789306640625 439.09100341796875 1742.1343994140625 425.70037841796875 C1756.1265869140625 412.64959716796875 1770.1265869140625 399.60272216796875 1784.1226806640625 386.55584716796875 C1794.9664306640625 376.45037841796875 1805.8140869140625 366.35662841796875 1816.6461181640625 356.23553466796875 C1818.1304931640625 354.85272216796875 1820.3961181640625 354.22772216796875 1822.3804931640625 354.37225341796875 C1824.5172119140625 354.52850341796875 1826.5445556640625 355.55584716796875 1827.9234619140625 357.19256591796875 C1829.2554931640625 358.77850341796875 1829.9390869140625 360.86053466796875 1829.7867431640625 362.92694091796875 C1829.6265869140625 365.14178466796875 1828.5601806640625 366.98162841796875 1826.9664306640625 368.46990966796875 C1815.9273681640625 378.75115966796875 1804.8922119140625 389.04412841796875 1793.8570556640625 399.33319091796875 C1779.9351806640625 412.30584716796875 1766.0133056640625 425.27850341796875 1752.0953369140625 438.25506591796875 C1737.6617431640625 451.71600341796875 1723.2164306640625 465.16522216796875 1708.7828369140625 478.62225341796875 C1694.0484619140625 492.36053466796875 1679.2945556640625 506.07928466796875 1664.5640869140625 519.8253784179688 C1650.2633056640625 533.1730346679688 1635.9039306640625 546.4620971679688 1621.6187744140625 559.8331909179688 C1606.8492431640625 573.6574096679688 1592.0523681640625 587.4542846679688 1577.2476806640625 601.2433471679688 C1562.8336181640625 614.6730346679688 1548.4117431640625 628.0988159179688 1534.0015869140625 641.5363159179688 C1520.2242431640625 654.3761596679688 1506.4390869140625 667.2042846679688 1492.6226806640625 680.0011596679688 C1478.6617431640625 692.9308471679688 1464.6812744140625 705.8331909179688 1450.5836181640625 718.6144409179688 C1436.5836181640625 731.3058471679688 1422.4351806640625 743.8331909179688 1407.7750244140625 755.7550659179688 C1403.5679931640625 759.1730346679688 1399.4156494140625 762.6495971679688 1395.2164306640625 766.0792846679688 C1393.0914306640625 767.8136596679688 1390.9625244140625 769.5402221679688 1388.7281494140625 771.1378784179688 C1387.8726806640625 771.7433471679688 1386.9429931640625 772.2238159179688 1385.9625244140625 772.5910034179688 C1385.4688720703125 772.7759399414062 1384.98193359375 772.8516235351562 1384.505126953125 772.8268432617188 C1384.4986572265625 772.8328247070312 1384.492431640625 772.8389282226562 1384.4859619140625 772.8449096679688 C1383.9781494140625 773.3136596679688 1383.2828369140625 773.8253784179688 1382.5992431640625 773.9503784179688 C1382.488037109375 773.9703979492188 1382.3773193359375 773.9800415039062 1382.2681884765625 773.9800415039062 C1381.2083740234375 773.9801635742188 1380.291259765625 773.0709838867188 1380.3726806640625 771.9660034179688 z" fill="#FF7F00" fill-opacity="1.0" stroke="none" />
				<path d="M725.57177734375 608.2284545898438 C724.59521484375 607.8886108398438 724.26708984375 606.7284545898438 724.80615234375 605.8847045898438 C725.06787109375 605.4745483398438 725.51708984375 605.1581420898438 725.89599609375 604.8573608398438 C726.66552734375 604.2518920898438 727.47021484375 603.6893920898438 728.27490234375 603.1307983398438 C730.11083984375 601.8495483398438 731.97021484375 600.5995483398438 733.82177734375 599.3417358398438 C737.66162109375 596.7323608398438 741.51318359375 594.1464233398438 745.36083984375 591.5526733398438 C753.17333984375 586.2792358398438 760.97021484375 580.9823608398438 768.74365234375 575.6542358398438 C784.03662109375 565.1698608398438 799.57177734375 555.0526733398438 815.03271484375 544.8222045898438 C829.83349609375 535.0292358398438 844.71240234375 525.3612670898438 859.58349609375 515.6737670898438 C866.90380859375 510.90423583984375 874.12646484375 505.99017333984375 881.45068359375 501.22454833984375 C889.22802734375 496.16595458984375 897.02880859375 491.15423583984375 904.81005859375 486.09954833984375 C920.31396484375 476.02532958984375 935.77880859375 465.89251708984375 951.25146484375 455.76751708984375 C966.29052734375 445.92767333984375 981.38818359375 436.17376708984375 996.48193359375 426.41204833984375 C1011.7437744140625 416.54486083984375 1027.00927734375 406.68548583984375 1042.24755859375 396.78314208984375 C1057.63037109375 386.78704833984375 1073.00146484375 376.76751708984375 1088.43896484375 366.84954833984375 C1096.01708984375 361.98236083984375 1103.63427734375 357.16204833984375 1111.20849609375 352.28314208984375 C1117.97802734375 347.92376708984375 1124.70849609375 343.50189208984375 1131.48193359375 339.15032958984375 C1134.79833984375 337.02142333984375 1138.16552734375 334.96673583984375 1141.48193359375 332.83782958984375 C1145.18115234375 330.46282958984375 1148.86865234375 328.07220458984375 1152.56787109375 325.70111083984375 C1155.57177734375 323.77532958984375 1158.56787109375 321.84173583984375 1161.55615234375 319.90032958984375 C1162.89599609375 319.02923583984375 1164.23583984375 318.15423583984375 1165.57177734375 317.28314208984375 C1166.3609619140625 316.76849365234375 1167.1688232421875 316.27252197265625 1167.9512939453125 315.74493408203125 C1168.3765869140625 315.21844482421875 1168.893310546875 314.75579833984375 1169.50927734375 314.36517333984375 C1172.18505859375 312.66595458984375 1175.82177734375 313.37298583984375 1177.57177734375 316.06048583984375 C1179.30615234375 318.71673583984375 1178.53662109375 322.38861083984375 1175.87646484375 324.12298583984375 C1175.2490234375 324.53289794921875 1174.5877685546875 324.8323974609375 1173.9014892578125 325.01513671875 C1171.697021484375 326.34674072265625 1169.548828125 327.792724609375 1167.37646484375 329.17767333984375 C1164.35693359375 331.10736083984375 1161.34130859375 333.04486083984375 1158.32958984375 334.99017333984375 C1154.66943359375 337.35736083984375 1151.00146484375 339.70501708984375 1147.34130859375 342.06829833984375 C1143.93505859375 344.26361083984375 1140.57958984375 346.53704833984375 1137.17724609375 348.73236083984375 C1130.44287109375 353.08001708984375 1123.66162109375 357.34954833984375 1116.92333984375 361.68939208984375 C1109.22412109375 366.65423583984375 1101.55615234375 371.66595458984375 1093.85693359375 376.63470458984375 C1078.52099609375 386.52923583984375 1063.11083984375 396.30267333984375 1047.73193359375 406.13079833984375 C1032.41552734375 415.91595458984375 1017.10302734375 425.71282958984375 1001.8062744140625 435.52923583984375 C986.71630859375 445.21673583984375 971.61083984375 454.87298583984375 956.47021484375 464.47845458984375 C948.61474609375 469.46282958984375 940.72802734375 474.40423583984375 932.86865234375 479.38861083984375 C925.16552734375 484.27142333984375 917.48193359375 489.19329833984375 909.79052734375 494.09954833984375 C901.90771484375 499.13079833984375 894.04443359375 504.20111083984375 886.15380859375 509.22845458984375 C878.79052734375 513.9198608398438 871.32568359375 518.4589233398438 863.95458984375 523.1503295898438 C848.88427734375 532.7362670898438 833.82568359375 542.3417358398438 818.68115234375 551.8143920898438 C803.06005859375 561.5878295898438 787.50927734375 571.4823608398438 771.73193359375 581.0097045898438 C763.67724609375 585.8729858398438 755.64208984375 590.7636108398438 747.62646484375 595.6893920898438 C743.77490234375 598.0565795898438 739.92724609375 600.4276733398438 736.06787109375 602.7792358398438 C734.15380859375 603.9472045898438 732.24755859375 605.1190795898438 730.31787109375 606.2636108398438 C729.51708984375 606.7401733398438 728.71240234375 607.2128295898438 727.88818359375 607.6464233398438 C727.43115234375 607.8925170898438 726.89990234375 608.2128295898438 726.38037109375 608.2870483398438 C726.38037109375 608.2842407226562 726.38037109375 608.2813110351562 726.38037109375 608.2785034179688 C726.2767333984375 608.2994995117188 726.1710205078125 608.3106079101562 726.064697265625 608.3106079101562 C725.8990478515625 608.3107299804688 725.7325439453125 608.2842407226562 725.57177734375 608.2284545898438 z" fill="#FF7F00" fill-opacity="1.0" stroke="none" />
				<path d="M1701.0093994140625 378.04693603515625 C1675.0484619140625 377.85064697265625 1649.0379638671875 376.42120361328125 1623.5015869140625 371.50799560546875 C1591.9163818359375 365.82708740234375 1560.80615234375 354.6925048828125 1530.876708984375 343.7462158203125 C1506.287353515625 335.13037109375 1481.7879638671875 326.18975830078125 1456.931396484375 318.37103271484375 C1424.9339599609375 309.13104248046875 1392.629638671875 301.44525146484375 1360.07568359375 295.375244140625 C1316.574462890625 287.7261962890625 1270.98828125 285.747802734375 1228.1170654296875 297.8646240234375 C1218.6927490234375 300.9669189453125 1209.435546875 304.55694580078125 1200.40478515625 308.65948486328125 C1191.5206298828125 312.73797607421875 1183.2156982421875 317.890625 1174.8297119140625 322.87896728515625 C1172.1639404296875 324.6995849609375 1167.1456298828125 326.46954345703125 1165.9234619140625 322.15655517578125 C1165.4078369140625 319.97686767578125 1166.7320556640625 317.80499267578125 1168.0953369140625 316.21124267578125 C1170.2125244140625 313.74249267578125 1172.7281494140625 311.60577392578125 1175.24755859375 309.55859375 C1191.4732666015625 297.04296875 1210.3564453125 287.87640380859375 1230.0367431640625 282.25030517578125 C1243.0640869140625 278.84796142578125 1256.4625244140625 277.14874267578125 1269.8804931640625 276.297119140625 C1295.0838623046875 274.5634765625 1320.4921875 275.7001953125 1345.4390869140625 279.671875 C1397.712158203125 287.7913818359375 1450.4656982421875 300.85052490234375 1499.89208984375 319.25042724609375 C1545.6741943359375 335.49517822265625 1590.0472412109375 354.15728759765625 1638.0875244140625 361.89886474609375 C1664.2994384765625 366.540283203125 1691.0484619140625 366.78656005859375 1717.5953369140625 366.82476806640625 C1743.4625244140625 366.876708984375 1769.2711181640625 366.19281005859375 1794.9039306640625 362.95367431640625 C1806.4603271484375 361.338134765625 1818.2994384765625 360.2459716796875 1829.4698486328125 356.96917724609375 C1832.1156005859375 356.58978271484375 1834.5142822265625 359.3751220703125 1833.3453369140625 361.92608642578125 C1832.5372314453125 364.00799560546875 1829.8790283203125 364.6126708984375 1827.8931884765625 365.20263671875 C1821.7059326171875 367.2879638671875 1815.2879638671875 368.49725341796875 1808.8843994140625 369.71881103515625 C1798.4639892578125 372.033935546875 1788.0152587890625 374.30877685546875 1777.3531494140625 375.22314453125 C1751.9813232421875 377.5008544921875 1726.4737548828125 378.06488037109375 1701.0093994140625 378.04693603515625 z" fill="#FF7F00" fill-opacity="1.0" stroke="none" />
				<path d="M565.2575073242188 598.3438110351562 C464.84100341796875 470.76416015625 336.13812255859375 518.8854370117188 198.94952392578125 510.67913818359375 C145.216064453125 505.36187744140625 91.0418701171875 498.01275634765625 40.1324462890625 479.2779541015625 C33.15655517578125 475.521240234375 -4.097412109375 465.85894775390625 0.37078857421875 458.6812744140625 C3.99969482421875 451.7362060546875 16.18310546875 461.28271484375 21.79327392578125 462.15155029296875 C34.59490966796875 466.9234619140625 47.8026123046875 470.46624755859375 61.0277099609375 473.85430908203125 C109.2226333618164 486.45062255859375 158.6806640625 493.85882568359375 208.44158935546875 496.08746337890625 C314.27606201171875 499.32196044921875 434.7275390625 468.63433837890625 525.8458862304688 538.4081420898438 C542.0166015625 552.2444458007812 569.8746337890625 575.2682495117188 575.6015014648438 595.5222778320312 C575.1567993164062 600.5744018554688 568.1782836914062 602.5658569335938 565.2575073242188 598.3438110351562 z" fill="#FF7F00" fill-opacity="1.0" stroke="none" />
				<path d="M7.2386474609375 466.44708251953125 C6.9495849609375 466.34161376953125 6.6839599609375 466.22833251953125 6.4300537109375 466.05255126953125 C5.2972412109375 465.26348876953125 4.8558349609375 463.97442626953125 5.2073974609375 462.65411376953125 C5.7230224609375 460.71661376953125 8.0980224609375 459.54473876953125 9.7191162109375 458.71661376953125 C12.3050537109375 457.39630126953125 15.0081787109375 456.28302001953125 17.6761474609375 455.14239501953125 C22.9613037109375 452.88458251953125 28.2464599609375 450.62677001953125 33.5120849609375 448.32598876953125 C43.6409912109375 443.90020751953125 53.8011474609375 439.53692626953125 64.0784912109375 435.46661376953125 C74.6488037109375 431.27911376953125 85.2972412109375 427.28302001953125 95.9261474609375 423.22833251953125 C106.4144287109375 419.22833251953125 116.9378662109375 415.31817626953125 127.4573974609375 411.40020751953125 C148.2269287109375 403.65802001953125 169.0238037109375 395.99005126953125 189.8284912109375 388.34161376953125 C200.5433349609375 384.40020751953125 211.2542724609375 380.45489501953125 222.0003662109375 376.59552001953125 C232.8284912109375 372.70489501953125 243.6917724609375 368.90802001953125 254.5159912109375 365.00177001953125 C276.7894287109375 356.97052001953125 299.0706787109375 348.94317626953125 321.3245849609375 340.84552001953125 C343.9378662109375 332.62286376953125 366.5980224609375 324.51739501953125 389.2191162109375 316.31427001953125 C411.7738037109375 308.13848876953125 434.2738037109375 299.81427001953125 456.7620849609375 291.45880126953125 C467.4144287109375 287.49786376953125 478.0589599609375 283.51348876953125 488.6839599609375 279.48223876953125 C494.1058349609375 277.42364501953125 499.5238037109375 275.35333251953125 504.9730224609375 273.36114501953125 C510.4417724609375 271.36505126953125 515.9300537109375 269.41192626953125 521.4066162109375 267.43927001953125 C526.8245849609375 265.49005126953125 532.2191162109375 263.49005126953125 537.6019287109375 261.45098876953125 C542.4808349609375 259.60723876953125 547.3050537109375 257.61895751953125 552.2113037109375 255.84942626953125 C556.5120849609375 254.29864501953125 560.8011474609375 252.75567626953125 565.0706787109375 251.11895751953125 C569.1956787109375 249.53692626953125 573.3597412109375 248.03302001953125 577.4534912109375 246.36895751953125 C577.5368041992188 246.33612060546875 577.6199951171875 246.301513671875 577.6837158203125 246.2738037109375 C578.6573486328125 245.84967041015625 579.6279296875 245.46527099609375 580.6297607421875 245.1278076171875 C580.6629638671875 245.11370849609375 580.6961669921875 245.099853515625 580.7947387695312 245.0589599609375 C581.9310302734375 244.592041015625 583.0623779296875 244.28485107421875 584.27587890625 244.16448974609375 C584.6787109375 244.04022216796875 585.0816040039062 243.91650390625 585.4886474609375 243.80255126953125 C586.4183349609375 243.54473876953125 587.3714599609375 243.49395751953125 588.3284912109375 243.46661376953125 C589.5863037109375 243.42755126953125 590.9573974609375 243.95098876953125 591.9925537109375 244.61895751953125 C593.3011474609375 245.46661376953125 594.3128662109375 246.73614501953125 594.8480224609375 248.19708251953125 C595.8089599609375 250.80645751953125 595.1644287109375 254.24395751953125 592.9183349609375 256.04473876953125 C592.2034912109375 256.61895751953125 591.4808349609375 257.14630126953125 590.6566162109375 257.56036376953125 C590.2406005859375 257.76715087890625 589.8126220703125 257.9481201171875 589.3846435546875 258.12701416015625 C588.3984375 258.8060302734375 587.352783203125 259.296142578125 586.2337646484375 259.6640625 C586.2337646484375 259.6640625 586.1636962890625 259.68609619140625 586.1636962890625 259.68609619140625 C586.10595703125 259.70477294921875 586.0482177734375 259.72320556640625 585.989990234375 259.74139404296875 C584.8956909179688 260.17718505859375 583.7949829101562 260.54412841796875 582.6552734375 260.87860107421875 C580.7786865234375 261.46795654296875 578.9375 262.17889404296875 577.0863037109375 262.83770751953125 C575.0433349609375 263.56427001953125 572.9925537109375 264.27520751953125 570.9456787109375 264.99005126953125 C566.7113037109375 266.47442626953125 562.5081787109375 268.02520751953125 558.3089599609375 269.59942626953125 C553.4925537109375 271.40802001953125 548.6058349609375 273.00567626953125 543.7581787109375 274.72052001953125 C538.1917724609375 276.68927001953125 532.6409912109375 278.70098876953125 527.1097412109375 280.76739501953125 C516.3519287109375 284.78302001953125 505.6019287109375 288.79473876953125 494.7738037109375 292.61895751953125 C484.1136474609375 296.38458251953125 473.4769287109375 300.22052001953125 462.8441162109375 304.06817626953125 C440.1878662109375 312.26739501953125 417.5472412109375 320.52130126953125 394.9534912109375 328.90020751953125 C372.5081787109375 337.22833251953125 350.0980224609375 345.66583251953125 327.6488037109375 353.98614501953125 C305.3870849609375 362.24005126953125 283.1409912109375 370.53692626953125 260.9027099609375 378.84161376953125 C250.0628662109375 382.89239501953125 239.2581787109375 387.02911376953125 228.4261474609375 391.09942626953125 C217.6839599609375 395.13458251953125 206.9066162109375 399.07598876953125 196.1292724609375 403.02130126953125 C175.3050537109375 410.65411376953125 154.4652099609375 418.25177001953125 133.6097412109375 425.80255126953125 C112.3753662109375 433.49005126953125 91.1136474609375 441.11895751953125 69.7542724609375 448.44708251953125 C59.3050537109375 452.03302001953125 48.7230224609375 455.19708251953125 38.1605224609375 458.43145751953125 C32.6448974609375 460.12286376953125 27.1214599609375 461.79473876953125 21.6058349609375 463.49395751953125 C18.8597412109375 464.33770751953125 16.1175537109375 465.20880126953125 13.3363037109375 465.92755126953125 C12.2152099609375 466.22052001953125 11.0902099609375 466.45880126953125 9.9378662109375 466.61114501953125 C9.57867431640625 466.65765380859375 9.201568603515625 466.68902587890625 8.82354736328125 466.68902587890625 C8.280792236328125 466.68902587890625 7.73602294921875 466.6243896484375 7.2386474609375 466.44708251953125 z" fill="#FF7F00" fill-opacity="1.0" stroke="none" />
				<path d="M1054.694091796875 389.70806884765625 C1052.4381103515625 388.7896728515625 1052.046875 386.00445556640625 1053.0482177734375 384.01373291015625 C1053.7799072265625 381.93499755859375 1054.052490234375 379.29290771484375 1054.4920654296875 377.29339599609375 C1056.0130615234375 369.14349365234375 1056.014892578125 360.7529296875 1054.4552001953125 352.607177734375 C1051.7889404296875 340.88922119140625 1046.3072509765625 329.8818359375 1039.8248291015625 319.8204345703125 C1033.519287109375 310.475830078125 1025.63232421875 302.32171630859375 1017.3424072265625 294.72698974609375 C996.5247802734375 276.030029296875 971.4549560546875 262.3388671875 944.4595947265625 254.966064453125 C922.484619140625 248.71710205078125 899.64306640625 246.09222412109375 876.8345947265625 245.930908203125 C860.409423828125 245.43798828125 843.9798583984375 246.560302734375 827.7408447265625 249.04034423828125 C792.6588134765625 254.32550048828125 758.1807861328125 263.24505615234375 722.9166259765625 267.258544921875 C699.692626953125 270.099609375 676.271484375 269.2276611328125 652.98681640625 267.69677734375 C634.8614501953125 266.0208740234375 616.4464111328125 264.6458740234375 598.9202270507812 259.481689453125 C595.538818359375 258.15606689453125 591.650390625 257.2095947265625 589.2252197265625 254.3685302734375 C585.7747802734375 248.23541259765625 592.1447143554688 245.156494140625 597.7447509765625 246.61822509765625 C614.0932006835938 249.7811279296875 631.0498657226562 251.404296875 647.5032958984375 252.8035888671875 C667.382080078125 254.15948486328125 687.3431396484375 255.3763427734375 707.2664794921875 254.40753173828125 C728.760009765625 253.42254638671875 749.84814453125 249.14874267578125 770.7408447265625 244.23516845703125 C785.7728271484375 241.09869384765625 800.848388671875 238.1031494140625 816.0025634765625 235.61834716796875 C835.269287109375 232.69873046875 854.751953125 230.70892333984375 874.2603759765625 231.2823486328125 C892.9375 231.43524169921875 911.6904296875 232.44818115234375 930.004638671875 236.31719970703125 C972.3726806640625 245.10546875 1013.1824951171875 266.00323486328125 1041.1832275390625 299.29632568359375 C1049.0750732421875 308.80816650390625 1055.8807373046875 319.35479736328125 1059.8074951171875 331.14556884765625 C1065.1815185546875 345.92657470703125 1067.5478515625 362.74114990234375 1062.1981201171875 377.85284423828125 C1060.691162109375 381.791015625 1061.076904296875 391.587646484375 1054.694091796875 389.70806884765625 z" fill="#FF7F00" fill-opacity="1.0" stroke="none" />
				<path d="M1064.745849609375 377.36383056640625 C1061.0059814453125 377.1448974609375 1061.9625244140625 362.68218994140625 1061.703369140625 359.64813232421875 C1061.851318359375 345.09332275390625 1064.1422119140625 330.6361083984375 1066.8677978515625 316.366943359375 C1069.421142578125 301.96929931640625 1073.78369140625 287.9998779296875 1079.3560791015625 274.49981689453125 C1095.034912109375 235.37481689453125 1111.5517578125 196.60052490234375 1128.3092041015625 157.929443359375 C1135.3575439453125 141.43853759765625 1142.7872314453125 125.0355224609375 1148.4049072265625 107.98870849609375 C1150.201904296875 102.26690673828125 1151.2269287109375 96.34912109375 1152.7347412109375 90.55438232421875 C1153.0823974609375 89.00750732421875 1153.3284912109375 87.39031982421875 1154.1917724609375 86.03125 C1155.6617431640625 83.5692138671875 1159.2608642578125 83.70025634765625 1160.84423828125 86.0035400390625 C1162.860595703125 88.61187744140625 1163.6939697265625 91.93603515625 1164.6722412109375 95.02703857421875 C1166.4769287109375 101.20673370361328 1167.7464599609375 107.49968719482422 1168.9456787109375 113.82000732421875 C1171.2958984375 126.12841796875 1170.8785400390625 138.7274169921875 1170.3909912109375 151.18719482421875 C1170.1995849609375 155.41766357421875 1169.9769287109375 159.66375732421875 1169.4534912109375 163.86297607421875 C1169.2069091796875 165.45587158203125 1169.2757568359375 167.3114013671875 1167.8909912109375 168.40972900390625 C1165.586181640625 170.4559326171875 1161.697998046875 168.3887939453125 1162.0706787109375 165.34344482421875 C1163.291015625 153.55413818359375 1163.2830810546875 142.6903076171875 1163.2110595703125 131.09344482421875 C1163.2169189453125 119.83233642578125 1162.3663330078125 108.52850341796875 1159.15771484375 97.68707275390625 C1154.3360595703125 128.0687255859375 1140.465087890625 155.8670654296875 1128.5589599609375 183.92547607421875 C1114.0499267578125 216.14630126953125 1100.505126953125 248.78216552734375 1086.96142578125 281.417724609375 C1081.5196533203125 294.45867919921875 1077.58935546875 308.039306640625 1074.5238037109375 321.82000732421875 C1071.4691162109375 335.32080078125 1068.682373046875 348.9241943359375 1067.4415283203125 362.72625732421875 C1067.1513671875 366.97686767578125 1066.54150390625 371.2708740234375 1066.6956787109375 375.51141357421875 C1066.8990478515625 376.6597900390625 1065.785400390625 377.60662841796875 1064.745849609375 377.36383056640625 z" fill="#FF7F00" fill-opacity="1.0" stroke="none" />
				<path d="M1082.683349609375 372.8524169921875 C1079.2725830078125 371.41766357421875 1083.0198974609375 354.85675048828125 1083.389404296875 351.29205322265625 C1087.3497314453125 329.431884765625 1094.1038818359375 308.20294189453125 1101.37744140625 287.2998046875 C1109.436279296875 265.0291748046875 1119.58447265625 243.314697265625 1128.89501953125 221.601318359375 C1135.2930908203125 206.8187255859375 1143.6064453125 193.00079345703125 1151.9561767578125 179.260986328125 C1158.370361328125 168.52606201171875 1165.5537109375 158.418212890625 1173.1865234375 148.53045654296875 C1185.7015380859375 130.827392578125 1196.00048828125 111.95452880859375 1205.2020263671875 92.4171142578125 C1210.416748046875 81.2779541015625 1215.8359375 69.781982421875 1218.834716796875 57.9093017578125 C1219.599365234375 55.14422607421875 1220.01318359375 52.29852294921875 1220.9130859375 49.5814208984375 C1221.9014892578125 46.65625 1225.5582275390625 45.20904541015625 1228.1396484375 47.08892822265625 C1231.16796875 49.26007080078125 1232.304931640625 53.1478271484375 1233.2452392578125 56.58502197265625 C1235.7193603515625 68.11932373046875 1236.3734130859375 79.98883056640625 1237.2216796875 91.7335205078125 C1237.904296875 103.80975341796875 1238.3651123046875 115.925537109375 1237.951904296875 128.0147705078125 C1237.8367919921875 131.59478759765625 1237.473876953125 135.176025390625 1236.951904296875 138.7177734375 C1236.7645263671875 141.7308349609375 1232.6402587890625 143.00262451171875 1230.7918701171875 140.6280517578125 C1230.0601806640625 139.74737548828125 1229.8775634765625 138.65240478515625 1230.0858154296875 137.5517578125 C1230.2818603515625 135.89239501953125 1230.34814453125 134.19622802734375 1230.4520263671875 132.5264892578125 C1231.197265625 119.98773193359375 1230.544189453125 107.41815185546875 1229.796142578125 94.89752197265625 C1228.7208251953125 82.57049560546875 1227.9130859375 70.3016357421875 1225.3699951171875 58.2666015625 C1222.3289794921875 67.6669921875 1220.196044921875 77.09356689453125 1216.576904296875 86.26861572265625 C1209.26416015625 104.48101806640625 1200.885498046875 122.23906707763672 1191.362548828125 139.4017333984375 C1179.9329833984375 159.7119140625 1166.233154296875 178.6199951171875 1154.5302734375 198.772705078125 C1145.662353515625 212.47601318359375 1138.3310546875 227.07598876953125 1131.573486328125 241.90948486328125 C1111.4727783203125 283.00457763671875 1095.048095703125 326.065673828125 1085.22802734375 370.80010986328125 C1085.9404296875 372.36187744140625 1083.9871826171875 373.80841064453125 1082.683349609375 372.8524169921875 z" fill="#FF7F00" fill-opacity="1.0" stroke="none" />
				<path d="M1097.0914306640625 363.66912841796875 C1095.5328369140625 363.24725341796875 1095.4820556640625 361.22381591796875 1095.4508056640625 359.92303466796875 C1095.4039306640625 358.12225341796875 1095.5953369140625 356.31365966796875 1095.7940673828125 354.52838134765625 C1098.8740234375 335.3873291015625 1108.030029296875 317.8232421875 1116.7867431640625 300.735595703125 C1122.9307861328125 289.05194091796875 1129.83203125 276.55474853515625 1136.74755859375 265.5753173828125 C1144.8431396484375 252.701416015625 1153.549560546875 240.2113037109375 1162.4078369140625 227.852783203125 C1171.4599609375 215.329345703125 1181.8489990234375 203.4833984375 1191.4859619140625 191.8096923828125 C1201.4971923828125 179.70440673828125 1211.4593505859375 167.56494140625 1222.1383056640625 156.040283203125 C1229.6221923828125 147.82049560546875 1237.219482421875 139.6990966796875 1244.34228515625 131.1624755859375 C1253.3388671875 119.84320068359375 1261.0076904296875 107.54387664794922 1268.7945556640625 95.38006591796875 C1273.5616455078125 87.799560546875 1278.1776123046875 80.28143310546875 1282.423583984375 72.415283203125 C1286.8841552734375 63.9984130859375 1291.9862060546875 55.50823974609375 1296.0015869140625 46.93475341796875 C1300.173583984375 37.576904296875 1303.5926513671875 27.7899169921875 1306.5054931640625 18.00506591796875 C1307.7310791015625 13.95159912109375 1308.79052734375 9.84552001953125 1310.0257568359375 5.79425048828125 C1310.6737060546875 2.299560546875 1312.789794921875 -1.15728759765625 1316.986328125 0.37213134765625 C1329.9637451171875 5.50341796875 1328.543212890625 41.29656982421875 1328.78271484375 53.65740966796875 C1328.5604248046875 67.3203125 1327.3736572265625 80.854736328125 1324.0174560546875 94.110595703125 C1321.009033203125 105.96074676513672 1317.9781494140625 117.87213134765625 1313.54833984375 129.2823486328125 C1312.594970703125 131.77947998046875 1311.4630126953125 134.19586181640625 1310.2203369140625 136.55584716796875 C1309.6890869140625 137.48944091796875 1308.5679931640625 137.94256591796875 1307.5484619140625 137.55584716796875 C1306.5289306640625 137.17303466796875 1305.9859619140625 136.09100341796875 1306.2047119140625 135.04412841796875 C1308.19140625 126.87274169921875 1310.989013671875 118.97113037109375 1312.9271240234375 110.7940673828125 C1317.4415283203125 92.5638427734375 1320.8470458984375 74.44000244140625 1321.12255859375 55.77850341796875 C1321.1219482421875 55.79437255859375 1321.1214599609375 55.81024169921875 1321.1207275390625 55.82611083984375 C1321.1201171875 55.85577392578125 1321.119384765625 55.8853759765625 1321.11572265625 55.97015380859375 C1321.1082763671875 44.148681640625 1321.773681640625 13.7427978515625 1314.455078125 5.2061767578125 C1310.80712890625 18.46270751953125 1306.731689453125 31.63671875 1301.947021484375 44.540283203125 C1290.327392578125 71.2291259765625 1276.00390625 96.7476806640625 1259.4781494140625 120.71605682373047 C1248.6993408203125 136.59869384765625 1235.804443359375 150.88604736328125 1223.69775390625 165.74615478515625 C1214.4920654296875 177.124755859375 1205.390869140625 188.59808349609375 1196.2554931640625 200.0323486328125 C1186.565673828125 212.35113525390625 1176.7840576171875 223.5565185546875 1167.6417236328125 236.06732177734375 C1145.1064453125 267.1898193359375 1125.1568603515625 299.89825439453125 1108.5010986328125 334.42645263671875 C1104.996337890625 342.2462158203125 1101.7464599609375 350.10369873046875 1099.7593994140625 358.40350341796875 C1099.5172119140625 359.38787841796875 1099.3023681640625 360.38006591796875 1099.08740234375 361.36846923828125 C1098.9058837890625 362.45465087890625 1098.4742431640625 363.96112060546875 1097.0914306640625 363.66912841796875 z" fill="#FF7F00" fill-opacity="1.0" stroke="none" />
				<path d="M1102.4263916015625 367.31182861328125 C1101.6763916015625 367.24151611328125 1101.1959228515625 366.52667236328125 1101.34033203125 365.807861328125 C1102.558349609375 363.2005615234375 1104.3604736328125 360.8631591796875 1105.8717041015625 358.41339111328125 C1115.656005859375 343.524169921875 1125.894775390625 328.9454345703125 1136.0321044921875 314.29638671875 C1156.828369140625 283.6263427734375 1179.2208251953125 253.94512939453125 1204.9617919921875 227.23004150390625 C1219.2744140625 211.76837158203125 1235.378662109375 198.17803955078125 1251.586669921875 184.77691650390625 C1262.8797607421875 174.791015625 1274.6907958984375 163.98675537109375 1285.6490478515625 153.8626708984375 C1300.726318359375 139.07421875 1315.7066650390625 124.15593719482422 1329.754638671875 108.37445068359375 C1345.5618896484375 90.86083984375 1360.0101318359375 72.177978515625 1374.7425537109375 53.7647705078125 C1381.719970703125 44.86767578125 1386.6864013671875 34.650634765625 1393.30517578125 25.63238525390625 C1395.015869140625 23.7266845703125 1398.068359375 24.139404296875 1399.5909423828125 26.10076904296875 C1405.256103515625 33.548095703125 1402.4195556640625 48.3448486328125 1401.2738037109375 57.163330078125 C1398.3675537109375 75.70184326171875 1393.82861328125 94.00213623046875 1386.7545166015625 111.40947723388672 C1383.5843505859375 119.41412353515625 1378.9417724609375 126.71552276611328 1374.1763916015625 133.843017578125 C1372.987548828125 135.44091796875 1370.5545654296875 134.08453369140625 1371.1998291015625 132.24932861328125 C1372.1392822265625 129.48187255859375 1372.986572265625 126.69135284423828 1373.942626953125 123.92816162109375 C1375.84814453125 116.19512939453125 1378.411865234375 108.6507568359375 1380.855224609375 101.07733154296875 C1384.2503662109375 88.66217041015625 1386.8682861328125 76.037353515625 1389.8133544921875 63.50714111328125 C1392.068603515625 53.004638671875 1394.69970703125 42.36090087890625 1394.2991943359375 31.54949951171875 C1389.6624755859375 38.00445556640625 1385.811279296875 44.66900634765625 1381.7701416015625 51.39776611328125 C1376.6129150390625 59.83294677734375 1370.718994140625 67.7666015625 1364.9266357421875 75.76904296875 C1356.6402587890625 86.4437255859375 1348.8662109375 97.4979248046875 1340.785888671875 108.32366943359375 C1332.2490234375 119.563720703125 1322.67724609375 129.978759765625 1313.3245849609375 140.5382080078125 C1299.3128662109375 156.32891845703125 1282.9910888671875 169.72760009765625 1267.37939453125 183.8585205078125 C1254.7813720703125 195.5833740234375 1241.5174560546875 206.55401611328125 1228.9091796875 218.2628173828125 C1207.325927734375 238.92755126953125 1186.2735595703125 260.25201416015625 1167.154296875 283.238037109375 C1146.4666748046875 309.41827392578125 1126.9334716796875 336.49261474609375 1106.4107666015625 362.803955078125 C1105.4749755859375 364.033203125 1104.4849853515625 365.20733642578125 1103.7218017578125 366.37725830078125 C1103.57470703125 366.9512939453125 1103.0408935546875 367.37359619140625 1102.4263916015625 367.31182861328125 z" fill="#FF7F00" fill-opacity="1.0" stroke="none" />
				<path d="M1179.066162109375 303.64801025390625 C1182.939697265625 297.44329833984375 1188.2791748046875 292.17327880859375 1192.998779296875 286.58721923828125 C1202.309326171875 276.17431640625 1212.740478515625 265.93255615234375 1222.8153076171875 256.47796630859375 C1250.9808349609375 229.556396484375 1280.9429931640625 204.58087158203125 1311.8853759765625 180.9190673828125 C1350.489013671875 152.8323974609375 1390.36572265625 125.67144775390625 1422.944091796875 90.4310302734375 C1428.419677734375 84.53076171875 1434.140869140625 78.856201171875 1439.3402099609375 72.7042236328125 C1441.813720703125 69.8670654296875 1443.3568115234375 66.37396240234375 1445.84228515625 63.57574462890625 C1447.8199462890625 61.5084228515625 1450.856201171875 63.17913818359375 1450.5338134765625 66.06768798828125 C1450.435546875 76.26947021484375 1447.9388427734375 86.21014404296875 1445.217529296875 95.98175048828125 C1441.484375 109.19622802734375 1438.4193115234375 122.6392822265625 1433.334716796875 135.42706298828125 C1428.346923828125 149.1278076171875 1421.6689453125 162.44384765625 1411.8465576171875 173.33734130859375 C1403.8192138671875 182.51983642578125 1394.879150390625 190.99530029296875 1384.990966796875 198.14581298828125 C1383.588623046875 199.10284423828125 1381.580810546875 198.71612548828125 1380.5184326171875 197.43890380859375 C1378.423583984375 194.59368896484375 1380.7562255859375 192.53948974609375 1383.0687255859375 191.0050048828125 C1404.7437744140625 174.341552734375 1416.1854248046875 154.74444580078125 1425.0810546875 129.33343505859375 C1430.89892578125 112.54620361328125 1438.4683837890625 95.85772705078125 1443.2169189453125 78.95281982421875 C1420.233642578125 112.15814208984375 1388.9327392578125 138.57696533203125 1357.0771484375 162.90789794921875 C1331.5029296875 181.115234375 1304.758544921875 197.8267822265625 1280.010498046875 217.06768798828125 C1250.702392578125 239.166259765625 1222.3641357421875 262.7022705078125 1196.627685546875 288.907470703125 C1191.523681640625 294.06048583984375 1186.52392578125 299.31072998046875 1181.7099609375 304.73333740234375 C1181.47216796875 305.2479248046875 1181.0172119140625 305.68115234375 1180.3717041015625 305.67437744140625 C1179.3140869140625 305.674560546875 1178.673583984375 304.51727294921875 1179.066162109375 303.64801025390625 z" fill="#FF7F00" fill-opacity="1.0" stroke="none" />
				<path d="M1230.1683349609375 290.649169921875 C1229.91357421875 289.541259765625 1230.6376953125 288.3214111328125 1231.1451416015625 287.407958984375 C1235.234619140625 279.72406005859375 1240.510498046875 272.80584716796875 1246.410400390625 266.42718505859375 C1258.45703125 253.04315185546875 1272.978759765625 241.97918701171875 1288.39501953125 232.75177001953125 C1306.8153076171875 221.26861572265625 1326.595458984375 212.0767822265625 1347.29736328125 205.536865234375 C1367.2939453125 198.8271484375 1387.5218505859375 192.84442138671875 1407.4415283203125 185.91131591796875 C1427.2255859375 179.09930419921875 1446.7371826171875 170.3935546875 1460.336181640625 153.85687255859375 C1461.974365234375 152.07073974609375 1463.398193359375 150.06695556640625 1465.105712890625 148.36505126953125 C1466.743896484375 146.85858154296875 1469.4903564453125 148.39312744140625 1469.129638671875 150.59930419921875 C1465.95361328125 161.153564453125 1460.2825927734375 170.9312744140625 1454.914306640625 180.53656005859375 C1448.1248779296875 192.7171630859375 1439.59033203125 203.80755615234375 1429.9769287109375 213.88433837890625 C1425.6605224609375 218.51324462890625 1421.1722412109375 222.97027587890625 1416.41064453125 227.138427734375 C1413.7298583984375 229.16510009765625 1406.2371826171875 237.44525146484375 1403.3011474609375 232.96246337890625 C1402.5120849609375 231.71636962890625 1402.7777099609375 230.02105712890625 1403.9141845703125 229.079345703125 C1409.1162109375 225.284423828125 1414.887451171875 222.2525634765625 1419.4234619140625 217.573974609375 C1429.880126953125 207.5306396484375 1439.13671875 195.53948974609375 1446.5472412109375 183.37261962890625 C1450.4017333984375 177.1888427734375 1454.1737060546875 170.93280029296875 1457.51220703125 164.45513916015625 C1420.2093505859375 203.265380859375 1363.26220703125 206.549560546875 1316.69580078125 228.525146484375 C1292.97412109375 239.82086181640625 1270.3211669921875 253.64813232421875 1251.1319580078125 271.71624755859375 C1246.0242919921875 276.60174560546875 1241.0634765625 281.63037109375 1236.3480224609375 286.89605712890625 C1235.1383056640625 288.2615966796875 1233.9849853515625 289.67645263671875 1232.797607421875 291.05694580078125 C1232.553955078125 291.50811767578125 1232.072265625 291.8397216796875 1231.5416259765625 291.83489990234375 C1230.8065185546875 291.83502197265625 1230.27734375 291.2930908203125 1230.1683349609375 290.649169921875 z" fill="#FF7F00" fill-opacity="1.0" stroke="none" />
				<path d="M1364.162841796875 287.748779296875 C1363.738525390625 285.56109619140625 1365.30517578125 283.38922119140625 1367.4752197265625 282.99871826171875 C1370.6756591796875 282.25518798828125 1373.934326171875 281.788818359375 1377.128173828125 281.02880859375 C1380.151611328125 280.25531005859375 1383.124755859375 279.31707763671875 1386.0443115234375 278.2105712890625 C1402.779541015625 271.10205078125 1417.941162109375 259.77093505859375 1430.8697509765625 247.5064697265625 C1443.2720947265625 235.86517333984375 1454.408447265625 223.70977783203125 1463.5975341796875 209.5921630859375 C1446.3824462890625 225.35418701171875 1424.2113037109375 233.69573974609375 1402.5885009765625 240.9244384765625 C1388.008056640625 246.05401611328125 1373.6964111328125 251.906005859375 1359.2452392578125 257.38226318359375 C1343.805419921875 263.46221923828125 1328.205078125 270.21527099609375 1315.4957275390625 281.11456298828125 C1315.1031494140625 283.87603759765625 1311.2891845703125 283.66143798828125 1310.857666015625 280.95953369140625 C1310.7447509765625 277.948486328125 1313.6627197265625 275.77008056640625 1315.4515380859375 273.658447265625 C1335.041259765625 254.87664794921875 1361.69140625 246.44171142578125 1386.2442626953125 236.20111083984375 C1411.8182373046875 225.93536376953125 1439.5185546875 219.35919189453125 1461.49072265625 202.06109619140625 C1464.67333984375 199.631103515625 1467.310546875 196.5836181640625 1470.337890625 193.99200439453125 C1471.714599609375 192.3304443359375 1474.51171875 190.4554443359375 1475.9361572265625 193.10809326171875 C1476.3463134765625 193.99090576171875 1476.1588134765625 194.97528076171875 1475.940185546875 195.88153076171875 C1475.087646484375 199.0723876953125 1473.71142578125 202.10791015625 1472.42822265625 205.1470947265625 C1466.6610107421875 218.63037109375 1457.81982421875 230.5179443359375 1448.0531005859375 241.3616943359375 C1432.19287109375 259.590576171875 1412.618408203125 274.282958984375 1390.8619384765625 284.74871826171875 C1386.3001708984375 286.9228515625 1381.45849609375 288.443359375 1376.5767822265625 289.71771240234375 C1372.6424560546875 290.40887451171875 1365.5284423828125 293.39288330078125 1364.162841796875 287.748779296875 z" fill="#FF7F00" fill-opacity="1.0" stroke="none" />
			</svg>
		</symbol>
	</defs>
	<g clip-path="url(#boundary-clip)" id="elements-group">
		<g>
			<use class="svg1-400" transform="translate(2000.0,2000.0) translate(1000.0,1000.0) scale(0.49999946,0.49999946) rotate(0.0) translate(-1000.0,-1000.0)" x="0" xlink:href="#1-400" y="0" />
			<use class="svg1-400" transform="translate(2000.0,-0.0) translate(1000.0,1000.0) scale(0.49999946,0.49999946) rotate(0.0) translate(-1000.0,-1000.0)" x="0" xlink:href="#1-400" y="0" />
			<use class="svg1-400" transform="translate(2000.0,-2000.0) translate(1000.0,1000.0) scale(0.49999946,0.49999946) rotate(0.0) translate(-1000.0,-1000.0)" x="0" xlink:href="#1-400" y="0" />
			<use class="svg1-400" transform="translate(0.0,2000.0) translate(1000.0,1000.0) scale(0.49999946,0.49999946) rotate(0.0) translate(-1000.0,-1000.0)" x="0" xlink:href="#1-400" y="0" />
			<use class="svg1-400" transform="translate(0.0,-0.0) translate(1000.0,1000.0) scale(0.49999946,0.49999946) rotate(0.0) translate(-1000.0,-1000.0)" x="0" xlink:href="#1-400" y="0" />
			<use class="svg1-400" transform="translate(0.0,-2000.0) translate(1000.0,1000.0) scale(0.49999946,0.49999946) rotate(0.0) translate(-1000.0,-1000.0)" x="0" xlink:href="#1-400" y="0" />
			<use class="svg1-400" transform="translate(-2000.0,2000.0) translate(1000.0,1000.0) scale(0.49999946,0.49999946) rotate(0.0) translate(-1000.0,-1000.0)" x="0" xlink:href="#1-400" y="0" />
			<use class="svg1-400" transform="translate(-2000.0,-0.0) translate(1000.0,1000.0) scale(0.49999946,0.49999946) rotate(0.0) translate(-1000.0,-1000.0)" x="0" xlink:href="#1-400" y="0" />
			<use class="svg1-400" transform="translate(-2000.0,-2000.0) translate(1000.0,1000.0) scale(0.49999946,0.49999946) rotate(0.0) translate(-1000.0,-1000.0)" x="0" xlink:href="#1-400" y="0" />
		</g>
		<style>#svg1-400 * {}</style>
	</g>
</svg>